<svg width="24" height="24" fill="none" xmlns="http://www.w3.org/2000/svg"><path d="M17 2H7a5 5 0 0 0-5 5v10a5 5 0 0 0 5 5h10a5 5 0 0 0 5-5V7a5 5 0 0 0-5-5Z" stroke="#111" stroke-width="2" stroke-linecap="round" stroke-linejoin="round"/><path d="M16 11.37a4 4 0 1 1-7.914 1.174A4 4 0 0 1 16 11.37Z" stroke="#111" stroke-width="2" stroke-linecap="round" stroke-linejoin="round"/><path d="M16 11.37a4 4 0 1 1-7.914 1.174A4 4 0 0 1 16 11.37ZM17.5 6.5h.01M17.5 6.5h.01" stroke="#111" stroke-width="2" stroke-linecap="round" stroke-linejoin="round"/></svg>